<?xml version="1.0" encoding="UTF-8"?>
<svg version="1.1" xmlns="http://www.w3.org/2000/svg" width="500" height="500">
<path d="M0 0 C0.61875 0.28875 1.2375 0.5775 1.875 0.875 C2.205 1.865 2.535 2.855 2.875 3.875 C3.49375 4.019375 4.1125 4.16375 4.75 4.3125 C7.65081439 5.08036263 8.35534802 6.3422467 9.875 8.875 C10.5625 11.125 10.5625 11.125 10.875 12.875 C11.535 12.524375 12.195 12.17375 12.875 11.8125 C17.06485996 10.50316876 19.5859434 10.89062635 23.875 11.875 C25.4375 13.6875 25.4375 13.6875 25.875 15.875 C25.5 17.8125 25.5 17.8125 24.875 19.875 C24.9678125 21.1125 24.9678125 21.1125 25.0625 22.375 C24.875 24.875 24.875 24.875 23 27.1875 C20.875 28.875 20.875 28.875 18.875 28.875 C18.875 29.535 18.875 30.195 18.875 30.875 C19.514375 31.16375 20.15375 31.4525 20.8125 31.75 C22.875 32.875 22.875 32.875 23.875 34.875 C23.94450541 36.41523996 23.95952357 37.95834988 23.9375 39.5 C23.92847656 40.31726563 23.91945313 41.13453125 23.91015625 41.9765625 C23.89275391 42.91628906 23.89275391 42.91628906 23.875 43.875 C22.225 44.205 20.575 44.535 18.875 44.875 C18.545 46.195 18.215 47.515 17.875 48.875 C13.09923661 48.4067879 9.83023655 47.63168002 5.875 44.875 C5.318125 46.23625 5.318125 46.23625 4.75 47.625 C2.57767532 51.39036279 0.7263458 52.91002765 -3.125 54.875 C-5.25 54.9375 -5.25 54.9375 -7.125 53.875 C-9.79463729 51.05281201 -11.54962844 48.75875805 -12.125 44.875 C-12.599375 45.57625 -13.07375 46.2775 -13.5625 47 C-21.49330446 55.89797573 -34.64327108 61.97830757 -46.45874023 63.09570312 C-71.23701056 64.26418585 -90.12215933 56.52639711 -111.4375 44.625 C-130.57937846 33.99498814 -151.13719374 29.80829891 -172.578125 35.84765625 C-184.08429625 40.11187801 -190.17180865 48.83516368 -196.625 58.875 C-197.25664062 59.84050781 -197.88828125 60.80601562 -198.5390625 61.80078125 C-200.07641011 64.15338896 -201.60475769 66.51131803 -203.125 68.875 C-202.59173096 68.51986328 -202.05846191 68.16472656 -201.5090332 67.79882812 C-200.80093506 67.33927734 -200.09283691 66.87972656 -199.36328125 66.40625 C-198.66501221 65.94798828 -197.96674316 65.48972656 -197.24731445 65.01757812 C-194.07601606 63.3102646 -191.63394682 63.32457697 -188.125 63.875 C-185.32960037 65.45905979 -185.1358315 66.83708976 -184.25 69.9375 C-183.88167978 81.53958706 -190.68655745 91.80563195 -198.2578125 100.1171875 C-203.64713535 105.1908178 -209.19813422 107.99783542 -216.625 108.1875 C-217.5840625 108.22488281 -218.543125 108.26226562 -219.53125 108.30078125 C-222.125 107.875 -222.125 107.875 -223.96875 105.85546875 C-224.3503125 105.20191406 -224.731875 104.54835938 -225.125 103.875 C-225.785 105.195 -226.445 106.515 -227.125 107.875 C-229.39479665 107.98294277 -231.66605196 108.06056176 -233.9375 108.125 C-235.20207031 108.17140625 -236.46664062 108.2178125 -237.76953125 108.265625 C-241.125 107.875 -241.125 107.875 -243.06640625 106.078125 C-244.79637063 102.47775633 -244.27826372 99.54502153 -243.125 95.875 C-238.6748092 86.15411448 -231.67170746 77.42170746 -224.125 69.875 C-227.37183309 69.0798572 -229.91563138 68.84268716 -233.125 69.875 C-235.38373332 72.79034184 -236.92863858 75.73148948 -238.51953125 79.0546875 C-240.17690278 81.96617715 -241.01896482 82.81045866 -244.125 83.875 C-242.75908831 80.33256548 -241.21568516 76.94872071 -239.5 73.5625 C-238.83097656 72.23798828 -238.83097656 72.23798828 -238.1484375 70.88671875 C-237.81070313 70.22285156 -237.47296875 69.55898437 -237.125 68.875 C-237.785 68.215 -238.445 67.555 -239.125 66.875 C-238.63 66.4625 -238.135 66.05 -237.625 65.625 C-235.69113908 63.75297662 -235.69113908 63.75297662 -236.125 59.875 C-235.135 60.205 -234.145 60.535 -233.125 60.875 C-232.795 62.855 -232.465 64.835 -232.125 66.875 C-227.505 66.545 -222.885 66.215 -218.125 65.875 C-219.00578057 69.39812227 -219.57414895 70.82422085 -221.56640625 73.640625 C-222.06430664 74.35879395 -222.56220703 75.07696289 -223.07519531 75.81689453 C-223.60725586 76.57856934 -224.13931641 77.34024414 -224.6875 78.125 C-230.33202267 86.36546263 -234.93179678 94.82261423 -239.125 103.875 C-238.135 104.205 -237.145 104.535 -236.125 104.875 C-229.12308344 101.29719141 -226.13828385 95.5841403 -222.38748169 88.87182617 C-220.67133854 85.80504211 -218.90158372 82.76938893 -217.13671875 79.73046875 C-216.7909227 79.13249481 -216.44512665 78.53452087 -216.08885193 77.91842651 C-204.80908307 58.49727998 -191.57205845 37.92766158 -168.9375 31.625 C-146.05184463 25.88793715 -124.5573855 31.58450554 -104.28198242 42.54223633 C-82.17351902 54.47403086 -57.9355072 61.10823656 -33.125 53.875 C-26.44452751 51.27842022 -19.98937235 48.2601324 -15.125 42.875 C-16.094375 42.6275 -17.06375 42.38 -18.0625 42.125 C-19.073125 41.7125 -20.08375 41.3 -21.125 40.875 C-21.75 38.875 -21.75 38.875 -22.125 36.875 C-24.1087767 35.59063266 -24.1087767 35.59063266 -26.125 34.875 C-25.94874165 32.49551228 -25.42780227 31.17274151 -23.72265625 29.49609375 C-22.21850908 28.25384514 -20.67370149 27.06123944 -19.125 25.875 C-19.8675 24.9159375 -19.8675 24.9159375 -20.625 23.9375 C-22.63450277 19.83476517 -22.38885672 16.36056418 -22.125 11.875 C-17.80313153 9.64858291 -14.83225649 9.8792342 -10.125 10.875 C-9.795 11.205 -9.465 11.535 -9.125 11.875 C-8.87105469 11.26011719 -8.61710938 10.64523438 -8.35546875 10.01171875 C-8.01128906 9.20347656 -7.66710937 8.39523438 -7.3125 7.5625 C-6.97605469 6.76199219 -6.63960937 5.96148437 -6.29296875 5.13671875 C-3.53300631 -0.2078239 -3.53300631 -0.2078239 0 0 Z M-4.125 22.875 C-4.24875 23.514375 -4.3725 24.15375 -4.5 24.8125 C-4.70625 25.493125 -4.9125 26.17375 -5.125 26.875 C-6.115 27.37 -6.115 27.37 -7.125 27.875 C-5.24183841 28.98336423 -5.24183841 28.98336423 -3.125 29.875 C-2.465 29.545 -1.805 29.215 -1.125 28.875 C-0.465 30.195 0.195 31.515 0.875 32.875 C1.865 32.875 2.855 32.875 3.875 32.875 C6.24480013 29.92122502 6.24480013 29.92122502 5.875 25.875 C4.225 25.875 2.575 25.875 0.875 25.875 C0.545 24.885 0.215 23.895 -0.125 22.875 C-1.445 22.875 -2.765 22.875 -4.125 22.875 Z M-200.125 69.875 C-208.59921622 77.19874315 -221.11314453 89.97067187 -222.4375 101.625 C-222.32786001 104.07421218 -222.32786001 104.07421218 -220.125 105.875 C-215.86273704 106.70666106 -213.30659336 105.65499604 -209.75 103.4375 C-199.51544908 96.09270464 -190.59883229 84.44206801 -188.125 71.875 C-188.30070831 68.95515529 -188.30070831 68.95515529 -189.125 66.875 C-193.47438566 64.78729488 -196.65438511 67.26541552 -200.125 69.875 Z " fill="#114C9B" transform="translate(423.125,169.125)"/>
<path d="M0 0 C-1.23398981 3.70196942 -2.89426616 4.31217164 -6.2109375 6.1328125 C-8 7 -8 7 -11 8 C-11.71075468 9.31036255 -12.36921448 10.64932171 -13 12 C-14.24474259 13.68624168 -15.51993934 15.35012665 -16.8125 17 C-25.63271042 28.52734923 -33.30306123 40.95542526 -40.6875 53.4375 C-41.09734131 54.1286792 -41.50718262 54.8198584 -41.92944336 55.53198242 C-45.13032051 61.02378381 -47.1216068 65.70484872 -48 72 C-41.97247369 70.64380658 -37.92884913 67.64926193 -34 63 C-32.24886886 59.94158879 -30.64567304 56.85991629 -29.07739258 53.70703125 C-24.20606571 44.12861966 -16.22871766 34.93412218 -6 31 C-2.91365158 30.56060563 -0.07795971 30.46890107 3 31 C5.84456168 33.15497097 5.94650402 34.61788584 6.4375 38.125 C5.59420484 45.59418573 2.42274745 51.9976999 -2 58 C1.0941966 57.344636 1.0941966 57.344636 2.0703125 55.06640625 C2.59238281 53.82697266 2.59238281 53.82697266 3.125 52.5625 C7.36694263 43.67098061 14.08452148 36.33671466 23 32 C25.61327485 31.12890838 27.30711171 30.81120201 30 30.75 C30.680625 30.72421875 31.36125 30.6984375 32.0625 30.671875 C34.64436679 31.10912663 35.46671985 31.89814788 37 34 C39.01341242 42.22533599 35.05798727 49.0930113 31 56 C30.34 56.99 29.68 57.98 29 59 C29.66 59 30.32 59 31 59 C31.26804443 58.2790918 31.53608887 57.55818359 31.81225586 56.81542969 C33.00131577 53.9968811 34.38764986 51.54762237 36.00390625 48.953125 C36.57947266 48.02628906 37.15503906 47.09945312 37.74804688 46.14453125 C38.34681641 45.18933594 38.94558594 44.23414063 39.5625 43.25 C40.16513672 42.27933594 40.76777344 41.30867188 41.38867188 40.30859375 C45.84741709 33.15258291 45.84741709 33.15258291 47 32 C48.99958364 31.95919217 51.00045254 31.95745644 53 32 C52.67 33.32 52.34 34.64 52 36 C52.55429687 35.65066406 53.10859375 35.30132812 53.6796875 34.94140625 C54.40414062 34.48636719 55.12859375 34.03132813 55.875 33.5625 C56.59429687 33.11003906 57.31359375 32.65757812 58.0546875 32.19140625 C61.88106762 29.84794052 64.46663603 29.52280379 69 30 C70.875 32.4375 70.875 32.4375 72 35 C72.33 35.33 72.66 35.66 73 36 C73.54269531 35.65066406 74.08539063 35.30132812 74.64453125 34.94140625 C75.71767578 34.25884766 75.71767578 34.25884766 76.8125 33.5625 C77.52019531 33.11003906 78.22789062 32.65757812 78.95703125 32.19140625 C82.99065892 29.83909949 86.40633412 29.74943641 91 30 C93 32 93 32 93.125 35.875 C92.19220605 42.66487224 87.94424538 47.59809872 84 53 C82.76476587 54.73769391 81.53854966 56.48120355 80.31835938 58.22949219 C79.18205079 59.85584547 78.03276015 61.4731055 76.8828125 63.08984375 C75.1969387 65.69560304 74.02120626 68.08150002 73 71 C73.66 71.33 74.32 71.66 75 72 C84.27460271 66.98484446 90.68336285 59.10694749 96.6953125 50.6015625 C97.12585938 50.07304687 97.55640625 49.54453125 98 49 C98.66 49 99.32 49 100 49 C96.71834229 58.53570695 87.09799715 69.45100142 78 74 C74.5 74.1875 74.5 74.1875 71 74 C69 72 69 72 68.4375 68.625 C68.72821285 59.13408036 76.78901611 50.62789745 82.53466797 43.5402832 C85.21291578 40.20601873 87.21460623 36.88381113 89 33 C79.71402606 33.47620379 72.69867742 40.68804602 66.5546875 47.0234375 C59.59074071 55.13739385 53.88721655 64.50851101 49 74 C46.69 74 44.38 74 42 74 C47.10466227 64.424795 52.9367895 55.57532219 59.25048828 46.75488281 C59.83556152 45.93600586 60.42063477 45.11712891 61.0234375 44.2734375 C61.54856934 43.54560059 62.07370117 42.81776367 62.61474609 42.06787109 C63.95337039 40.06960747 65.12283943 38.24163257 66 36 C65.67 35.01 65.34 34.02 65 33 C50.66380104 38.37607461 42.35593048 49.8283033 34.5625 62.5 C33.33550073 64.46928941 32.10768241 66.43806882 30.87890625 68.40625 C30.08335327 69.69499023 30.08335327 69.69499023 29.27172852 71.00976562 C28 73 28 73 27 74 C25.33382885 74.04063832 23.66611905 74.042721 22 74 C23.56641751 69.69235185 25.68336156 65.93828536 28 62 C27.50371094 62.44730469 27.00742187 62.89460938 26.49609375 63.35546875 C24.35220117 65.2634111 22.18470966 67.13895103 20 69 C19.40316406 69.50917969 18.80632812 70.01835937 18.19140625 70.54296875 C13.8670518 73.94852272 10.55091771 75.09099865 5 75 C2.5198649 73.15579697 1.36858837 71.73717673 0 69 C-0.13415472 66.3276379 -0.04318541 63.67749512 0 61 C-5.0477956 62.74466572 -5.0477956 62.74466572 -8.8125 66.3125 C-12.13190374 70.39062459 -16.19813683 72.90195517 -21 75 C-24.9375 75.125 -24.9375 75.125 -28 74 C-30.35271567 71.64728433 -31.53140492 68.95577998 -33 66 C-33.556875 66.5775 -34.11375 67.155 -34.6875 67.75 C-41.70531874 74.57814797 -41.70531874 74.57814797 -46.375 74.8125 C-50 74 -50 74 -52.0625 72 C-53.85533113 66.26294037 -52.52069569 61.70381247 -50.0625 56.4375 C-46.24810656 49.28823687 -41.59497888 42.66020846 -37 36 C-36.51015625 35.28263672 -36.0203125 34.56527344 -35.515625 33.82617188 C-12.38865639 0 -12.38865639 0 0 0 Z M-12 39 C-19.04903825 45.63816534 -26.63769998 55.05838349 -27.09765625 65.140625 C-27.08605469 65.83671875 -27.07445312 66.5328125 -27.0625 67.25 C-27.041875 68.4875 -27.02125 69.725 -27 71 C-24.24331069 72.75030276 -24.24331069 72.75030276 -21.10546875 72.56640625 C-15.83664838 69.80859192 -11.9687405 66.4152238 -8 62 C-8.32226562 61.39929688 -8.64453125 60.79859375 -8.9765625 60.1796875 C-10.3741881 57.20306504 -10.39167405 55.26395038 -10 52 C-8.45024737 48.563592 -7.21100993 46.55652263 -3.73046875 44.95703125 C-1.50067085 44.20908329 0.71550897 43.55647858 3 43 C3.93380961 38.46859347 3.93380961 38.46859347 3 34 C-3.46424305 31.6795025 -7.17507977 34.96148443 -12 39 Z M20 39 C19.09701172 39.75990234 19.09701172 39.75990234 18.17578125 40.53515625 C11.37894338 46.75158999 5.44351722 55.79757769 4 65 C4.29257208 68.810185 4.29257208 68.810185 5 72 C6.64330947 72.89724685 6.64330947 72.89724685 9 73 C14.77902144 70.38308463 18.7253013 66.62550984 23 62 C22.67 61.01 22.34 60.02 22 59 C21.51299489 54.04878135 21.4011161 51.99190146 24 47.6875 C27.12402783 44.38341293 30.71665645 43.30678278 35 42 C35.16677282 38.58343976 35.16677282 38.58343976 35 35 C33.18524391 32.77319346 33.18524391 32.77319346 30.6171875 32.71484375 C26.09293448 33.20778475 23.3609562 36.11459018 20 39 Z M25 49 C22.70986347 52.4352048 22.82157027 53.985331 23 58 C23.99 58.33 24.98 58.66 26 59 C27.17192047 57.04480616 28.3373929 55.0857461 29.5 53.125 C30.1496875 52.03445312 30.799375 50.94390625 31.46875 49.8203125 C33.15904853 47.24192328 33.15904853 47.24192328 33 45 C29.66805535 45 27.62003702 47.08955634 25 49 Z M0 45 C-3.35819395 46.41790411 -5.61328179 47.52595833 -7.9375 50.375 C-9.17207681 53.42513094 -8.97289325 54.90443057 -8 58 C-7.01 58 -6.02 58 -5 58 C-3.25676039 55.88365952 -3.25676039 55.88365952 -1.75 53.1875 C-1.20859375 52.29417969 -0.6671875 51.40085937 -0.109375 50.48046875 C1.35838953 47.94851492 1.35838953 47.94851492 0 45 Z " fill="#114C9B" transform="translate(283,203)"/>
<path d="M0 0 C0.61875 0.28875 1.2375 0.5775 1.875 0.875 C2.205 1.865 2.535 2.855 2.875 3.875 C3.49375 4.019375 4.1125 4.16375 4.75 4.3125 C7.65081439 5.08036263 8.35534802 6.3422467 9.875 8.875 C10.5625 11.125 10.5625 11.125 10.875 12.875 C11.535 12.524375 12.195 12.17375 12.875 11.8125 C17.06485996 10.50316876 19.5859434 10.89062635 23.875 11.875 C25.4375 13.6875 25.4375 13.6875 25.875 15.875 C25.5 17.8125 25.5 17.8125 24.875 19.875 C24.936875 20.7 24.99875 21.525 25.0625 22.375 C24.875 24.875 24.875 24.875 23 27.1875 C20.875 28.875 20.875 28.875 18.875 28.875 C18.875 29.535 18.875 30.195 18.875 30.875 C19.514375 31.16375 20.15375 31.4525 20.8125 31.75 C22.875 32.875 22.875 32.875 23.875 34.875 C23.94450541 36.41523996 23.95952357 37.95834988 23.9375 39.5 C23.92847656 40.31726563 23.91945313 41.13453125 23.91015625 41.9765625 C23.89855469 42.60304687 23.88695312 43.22953125 23.875 43.875 C21.4 44.37 21.4 44.37 18.875 44.875 C18.545 46.195 18.215 47.515 17.875 48.875 C13.09923661 48.4067879 9.83023655 47.63168002 5.875 44.875 C5.318125 46.23625 5.318125 46.23625 4.75 47.625 C2.57767532 51.39036279 0.7263458 52.91002765 -3.125 54.875 C-5.25 54.9375 -5.25 54.9375 -7.125 53.875 C-10.29334239 50.88267663 -11.08620898 49.46656307 -11.375 45.0625 C-11.2925 44.010625 -11.21 42.95875 -11.125 41.875 C-12.40375 41.895625 -13.6825 41.91625 -15 41.9375 C-18.875 42 -18.875 42 -21.125 40.875 C-21.24875 40.235625 -21.3725 39.59625 -21.5 38.9375 C-21.93439427 36.67648727 -21.93439427 36.67648727 -24.1875 35.625 C-24.826875 35.3775 -25.46625 35.13 -26.125 34.875 C-25.94874165 32.49551228 -25.42780227 31.17274151 -23.72265625 29.49609375 C-22.21850908 28.25384514 -20.67370149 27.06123944 -19.125 25.875 C-19.62 25.235625 -20.115 24.59625 -20.625 23.9375 C-22.63450277 19.83476517 -22.38885672 16.36056418 -22.125 11.875 C-17.80313153 9.64858291 -14.83225649 9.8792342 -10.125 10.875 C-9.795 11.205 -9.465 11.535 -9.125 11.875 C-8.87105469 11.26011719 -8.61710937 10.64523438 -8.35546875 10.01171875 C-8.01128906 9.20347656 -7.66710937 8.39523438 -7.3125 7.5625 C-6.97605469 6.76199219 -6.63960938 5.96148437 -6.29296875 5.13671875 C-3.53300631 -0.2078239 -3.53300631 -0.2078239 0 0 Z M-4.125 22.875 C-4.24875 23.514375 -4.3725 24.15375 -4.5 24.8125 C-4.70625 25.493125 -4.9125 26.17375 -5.125 26.875 C-6.115 27.37 -6.115 27.37 -7.125 27.875 C-5.24183841 28.98336423 -5.24183841 28.98336423 -3.125 29.875 C-2.465 29.545 -1.805 29.215 -1.125 28.875 C-0.465 30.195 0.195 31.515 0.875 32.875 C1.865 32.875 2.855 32.875 3.875 32.875 C6.24480013 29.92122502 6.24480013 29.92122502 5.875 25.875 C4.225 25.875 2.575 25.875 0.875 25.875 C0.545 24.885 0.215 23.895 -0.125 22.875 C-1.445 22.875 -2.765 22.875 -4.125 22.875 Z " fill="#E7BFFE" transform="translate(423.125,169.125)"/>
<path d="M0 0 C2.625 0.9375 2.625 0.9375 5 2 C4.58140256 14.5579232 -2.03294194 23.74273011 -10 33 C-10.49242187 33.63679688 -10.98484375 34.27359375 -11.4921875 34.9296875 C-15.79923935 40.40475341 -21.54939029 46.1220345 -28.57421875 47.5078125 C-30.84467605 47.55899833 -32.79382069 47.53728074 -35 47 C-37.35953094 44.64046906 -37.49141413 43.22104383 -38 40 C-38.54269531 40.42152344 -39.08539063 40.84304688 -39.64453125 41.27734375 C-40.35996094 41.82519531 -41.07539062 42.37304688 -41.8125 42.9375 C-42.52019531 43.48277344 -43.22789063 44.02804687 -43.95703125 44.58984375 C-48.52876597 47.74547709 -53.65140671 47.58650696 -59 47 C-61.625 45.625 -61.625 45.625 -63 43 C-64.9460387 34.76552218 -61.23231427 27.59142887 -57.078125 20.66455078 C-52.25272038 13.21445823 -45.52006467 5.59544813 -36.60546875 3.4140625 C-30.6727868 2.55147546 -30.6727868 2.55147546 -27 5 C-26.17957101 9.55793886 -26.86607586 12.34107784 -29.4375 16.0625 C-34.87318759 22.59796624 -40.69568577 25.7824057 -48.875 27.875 C-53.23126103 28.99689497 -53.23126103 28.99689497 -56.53125 31.8125 C-58.25186808 36.01845531 -58.21189056 39.59312524 -57 44 C-49.98644482 44.91481155 -45.55289671 42.12765322 -40 38 C-32.52066799 31.54378416 -27.86080566 21.08781494 -23.078125 12.58203125 C-22.49546875 11.58558594 -21.9128125 10.58914062 -21.3125 9.5625 C-20.81363281 8.67691406 -20.31476563 7.79132813 -19.80078125 6.87890625 C-18 5 -18 5 -14.79296875 4.71484375 C-13.87128906 4.80894531 -12.94960937 4.90304688 -12 5 C-13.51344335 9.29077291 -15.75167237 12.91826596 -18.25 16.6875 C-19.06092321 17.93162263 -19.87081452 19.17641843 -20.6796875 20.421875 C-21.07510742 21.02966797 -21.47052734 21.63746094 -21.87792969 22.26367188 C-28.98802947 32.39007143 -28.98802947 32.39007143 -32 44 C-23.51632596 43.17741511 -18.82625306 37.33605187 -13.53125 31.0859375 C-7.12194363 22.81793228 -1.37583392 14.71126677 -1 4 C-1.495 2.515 -1.495 2.515 -2 1 C-1.34 0.67 -0.68 0.34 0 0 Z M-45.48046875 14.70703125 C-50.47752828 20.21051147 -50.47752828 20.21051147 -53 27 C-43.09174968 24.68536775 -35.89175544 20.39128806 -30 12 C-29.04452419 9.32891902 -29.04452419 9.32891902 -29 7 C-30.04067907 5.74542284 -30.04067907 5.74542284 -32.328125 5.79296875 C-38.01399176 6.2335403 -41.79178654 10.68143004 -45.48046875 14.70703125 Z " fill="#114C9B" transform="translate(150,230)"/>
<path d="M0 0 C0.99 0.66 1.98 1.32 3 2 C3.80469082 6.47050453 3.17130641 9.31018354 0.6875 13 C-4.74384731 19.56606541 -11.72257863 23.69102712 -20 25.5 C-24.43634268 26.50267723 -24.43634268 26.50267723 -27.1875 30.3125 C-27.93890903 33.72274099 -28.33053891 36.52934144 -28 40 C-26.88830885 41.30352229 -26.88830885 41.30352229 -24.125 41.5 C-14.92174363 41.31179435 -7.14028968 32.5647798 -1.19140625 26.4296875 C1.06241893 23.99389643 1.06241893 23.99389643 3.16015625 21.1953125 C4.07087891 20.10863281 4.07087891 20.10863281 5 19 C5.66 19 6.32 19 7 19 C5.50885633 24.42234063 1.81728901 27.66201088 -2.0625 31.5 C-3.00899414 32.47646484 -3.00899414 32.47646484 -3.97460938 33.47265625 C-9.11847922 38.61133551 -14.68256194 43.07195257 -21.92578125 44.62890625 C-25.60800673 44.5264548 -28.29847442 44.35076279 -31.625 42.6875 C-33.95260766 38.13808503 -33.81915805 33.98479898 -33 29 C-29.27027523 18.06416549 -21.37051755 8.66347915 -12 2 C-7.90265485 0.2074115 -4.46179657 -0.39660414 0 0 Z M-19.5546875 15.9375 C-22.13798675 19.13623264 -22.13798675 19.13623264 -23 23 C-15.51069529 22.67437806 -9.5497902 19.25635996 -4.0625 14.22265625 C-1.19097197 11.06811704 0.86953783 8.43571385 1 4 C-0.02708333 2.77291667 -0.02708333 2.77291667 -2.1875 2.6875 C-9.43205274 3.4924503 -15.1922765 10.5009275 -19.5546875 15.9375 Z " fill="#114C9B" transform="translate(177,233)"/>
<path d="M0 0 C1.65 0 3.3 0 5 0 C7 5 9 10 11 15 C13.60526888 12.39473112 14.34134224 9.82060766 15.625 6.375 C16.07101562 5.18648438 16.51703125 3.99796875 16.9765625 2.7734375 C17.31429688 1.85820312 17.65203125 0.94296875 18 0 C19.65 0 21.3 0 23 0 C23 7.59 23 15.18 23 23 C21.68 23 20.36 23 19 23 C18.67 19.37 18.34 15.74 18 12 C16.68 15.63 15.36 19.26 14 23 C12.35 23 10.7 23 9 23 C7.35 18.38 5.7 13.76 4 9 C3.67 13.62 3.34 18.24 3 23 C2.01 23 1.02 23 0 23 C0 15.41 0 7.82 0 0 Z " fill="#004AAD" transform="translate(241,301)"/>
<path d="M0 0 C2.93087207 2.25451698 3.82814288 3.48442865 5 7 C5.41368897 11.2482675 5.45400171 14.90083797 3.8125 18.875 C0.92334662 22.26228328 -1.51451789 23.77875798 -5.9375 24.4375 C-9.8124426 23.88393677 -11.95425348 22.40826469 -15 20 C-16.33827901 17.32344199 -16.20578556 15.17565948 -16.25 12.1875 C-16.27578125 11.14980469 -16.3015625 10.11210937 -16.328125 9.04296875 C-15.95634949 5.59519345 -15.04381036 3.77268731 -13 1 C-8.84210913 -1.6135314 -4.58792681 -1.34374425 0 0 Z M-10.8125 4.0625 C-12.62043217 7.01228407 -12.82270308 9.57225952 -13 13 C-12.08324478 16.17338346 -11.33659163 17.66340837 -9 20 C-4.22623523 20.57759699 -4.22623523 20.57759699 -0.0625 18.5625 C1.54130175 14.69450754 1.67298561 11.12109164 1 7 C-0.44014926 4.30861457 -0.44014926 4.30861457 -3 3 C-6.14454533 2.55077924 -8.04411529 2.43965379 -10.8125 4.0625 Z " fill="#004AAD" transform="translate(231,301)"/>
<path d="M0 0 C0.99 0 1.98 0 3 0 C3 2.97 3 5.94 3 9 C6.63 9 10.26 9 14 9 C14 6.03 14 3.06 14 0 C15.32 0 16.64 0 18 0 C18 7.59 18 15.18 18 23 C16.68 23 15.36 23 14 23 C14 19.37 14 15.74 14 12 C10.37 12 6.74 12 3 12 C3 15.63 3 19.26 3 23 C2.01 23 1.02 23 0 23 C0 15.41 0 7.82 0 0 Z " fill="#004AAD" transform="translate(192,301)"/>
<path d="M0 0 C4.95 0 9.9 0 15 0 C15 0.99 15 1.98 15 3 C11.04 3 7.08 3 3 3 C3 5.31 3 7.62 3 10 C6.3 10 9.6 10 13 10 C13 10.99 13 11.98 13 13 C9.7 13 6.4 13 3 13 C3 15.31 3 17.62 3 20 C6.96 20 10.92 20 15 20 C15 20.99 15 21.98 15 23 C10.05 23 5.1 23 0 23 C0 15.41 0 7.82 0 0 Z " fill="#004AAD" transform="translate(270,301)"/>
</svg>
